{
  "asset": {
    "version": "2.0",
    "generator": "Thy Will bootstrap"
  },
  "scene": 0,
  "scenes": [
    {
      "nodes": [
        0
      ]
    }
  ],
  "nodes": [
    {
      "mesh": 0,
      "name": "Beacon"
    }
  ],
  "meshes": [
    {
      "primitives": [
        {
          "attributes": {
            "POSITION": 0
          },
          "indices": 1,
          "material": 0
        }
      ]
    }
  ],
  "materials": [
    {
      "pbrMetallicRoughness": {
        "baseColorFactor": [
          0.2,
          0.8,
          0.9,
          1
        ],
        "metallicFactor": 0.2,
        "roughnessFactor": 0.6
      },
      "emissiveFactor": [
        0.1,
        0.4,
        0.5
      ],
      "doubleSided": true
    }
  ],
  "buffers": [
    {
      "uri": "data:application/octet-stream;base64,",
      "byteLength": 120
    }
  ],
  "bufferViews": [
    {
      "buffer": 0,
      "byteOffset": 0,
      "byteLength": 72,
      "target": 34962
    },
    {
      "buffer": 0,
      "byteOffset": 72,
      "byteLength": 48,
      "target": 34963
    }
  ],
  "accessors": [
    {
      "bufferView": 0,
      "componentType": 5126,
      "count": 6,
      "type": "VEC3",
      "min": [
        -0.7,
        0,
        -0.7
      ],
      "max": [
        0.7,
        2,
        0.7
      ]
    },
    {
      "bufferView": 1,
      "componentType": 5123,
      "count": 24,
      "type": "SCALAR"
    }
  ]
}
